<mxfile host="Electron" modified="2024-04-15T23:49:34.062Z" agent="Mozilla/5.0 (Windows NT 10.0; Win64; x64) AppleWebKit/537.36 (KHTML, like Gecko) draw.io/23.1.5 Chrome/120.0.6099.109 Electron/28.1.0 Safari/537.36" etag="xIv3KaXRZkG_4PQT2MR3" version="23.1.5" type="device">
  <diagram name="Page-1" id="9c096ad6-e400-ecc8-3e38-643d2caac077">
    <mxGraphModel dx="1594" dy="2184" grid="1" gridSize="10" guides="1" tooltips="1" connect="1" arrows="1" fold="1" page="1" pageScale="1.5" pageWidth="1169" pageHeight="826" background="none" math="0" shadow="0">
      <root>
        <mxCell id="0" style=";html=1;" />
        <mxCell id="1" style=";html=1;" parent="0" />
        <mxCell id="3TcSFifbMM4Q867GuQ4c-19" value="" style="shape=ext;double=1;rounded=0;whiteSpace=wrap;html=1;" vertex="1" parent="1">
          <mxGeometry x="724.5" y="-530" width="190" height="140" as="geometry" />
        </mxCell>
        <mxCell id="W3ftcsQW7J99zag8JeNF-3" value="" style="shape=process;whiteSpace=wrap;html=1;backgroundOutline=1;rounded=1;" parent="1" vertex="1">
          <mxGeometry x="380" y="315" width="190" height="140" as="geometry" />
        </mxCell>
        <mxCell id="W3ftcsQW7J99zag8JeNF-9" value="&lt;font style=&quot;font-size: 11px;&quot;&gt;Fornece um subconjunto de funcionalidades aos clientes por meio de seus dispositivos móveis.&lt;/font&gt;" style="text;html=1;align=center;verticalAlign=middle;whiteSpace=wrap;rounded=0;" parent="1" vertex="1">
          <mxGeometry x="400" y="385" width="150" height="60" as="geometry" />
        </mxCell>
        <mxCell id="W3ftcsQW7J99zag8JeNF-10" value="&lt;h2&gt;&lt;font style=&quot;font-size: 14px;&quot;&gt;&lt;b&gt;Aplicação Mobile&lt;/b&gt;&lt;/font&gt;&lt;/h2&gt;" style="text;html=1;align=center;verticalAlign=middle;whiteSpace=wrap;rounded=0;" parent="1" vertex="1">
          <mxGeometry x="380" y="325" width="190" height="30" as="geometry" />
        </mxCell>
        <mxCell id="W3ftcsQW7J99zag8JeNF-11" value="[Container: Kotlin]" style="text;html=1;align=center;verticalAlign=middle;whiteSpace=wrap;rounded=0;" parent="1" vertex="1">
          <mxGeometry x="380" y="345" width="190" height="30" as="geometry" />
        </mxCell>
        <mxCell id="W3ftcsQW7J99zag8JeNF-12" value="" style="shape=cylinder3;whiteSpace=wrap;html=1;boundedLbl=1;backgroundOutline=1;size=15;fillColor=#CCCCCC;fontColor=#333333;strokeColor=#666666;" parent="1" vertex="1">
          <mxGeometry x="460" y="582" width="320" height="158" as="geometry" />
        </mxCell>
        <mxCell id="W3ftcsQW7J99zag8JeNF-13" value="&lt;h2&gt;&lt;span style=&quot;font-size: 14px;&quot;&gt;Banco de Dados&lt;/span&gt;&lt;/h2&gt;" style="text;html=1;align=center;verticalAlign=middle;whiteSpace=wrap;rounded=0;" parent="1" vertex="1">
          <mxGeometry x="525" y="582" width="190" height="30" as="geometry" />
        </mxCell>
        <mxCell id="W3ftcsQW7J99zag8JeNF-14" value="[Container: MySQL ]" style="text;html=1;align=center;verticalAlign=middle;whiteSpace=wrap;rounded=0;" parent="1" vertex="1">
          <mxGeometry x="525" y="620" width="190" height="30" as="geometry" />
        </mxCell>
        <mxCell id="W3ftcsQW7J99zag8JeNF-16" value="&lt;font style=&quot;font-size: 11px;&quot;&gt;Armazena informações de registro do usuário, autentificações, logs, credenciais, etc.&lt;/font&gt;" style="text;html=1;align=center;verticalAlign=middle;whiteSpace=wrap;rounded=0;" parent="1" vertex="1">
          <mxGeometry x="525" y="650" width="204.5" height="67" as="geometry" />
        </mxCell>
        <mxCell id="W3ftcsQW7J99zag8JeNF-17" value="" style="shape=ext;double=1;rounded=0;whiteSpace=wrap;html=1;" parent="1" vertex="1">
          <mxGeometry x="723.5" y="-363" width="190" height="140" as="geometry" />
        </mxCell>
        <mxCell id="W3ftcsQW7J99zag8JeNF-18" value="&lt;h2&gt;&lt;span style=&quot;font-size: 14px;&quot;&gt;Microserviço&lt;/span&gt;&lt;/h2&gt;" style="text;html=1;align=center;verticalAlign=middle;whiteSpace=wrap;rounded=0;" parent="1" vertex="1">
          <mxGeometry x="723.5" y="-356" width="190" height="30" as="geometry" />
        </mxCell>
        <mxCell id="W3ftcsQW7J99zag8JeNF-19" value="[Container: Java e Spring MVC]" style="text;html=1;align=center;verticalAlign=middle;whiteSpace=wrap;rounded=0;" parent="1" vertex="1">
          <mxGeometry x="723.5" y="-331" width="190" height="30" as="geometry" />
        </mxCell>
        <mxCell id="W3ftcsQW7J99zag8JeNF-20" value="&lt;span style=&quot;font-size: 11px;&quot;&gt;Gerenciamento de produtos&amp;nbsp; e estoque&lt;/span&gt;" style="text;html=1;align=center;verticalAlign=middle;whiteSpace=wrap;rounded=0;" parent="1" vertex="1">
          <mxGeometry x="743.5" y="-298" width="150" height="60" as="geometry" />
        </mxCell>
        <mxCell id="W3ftcsQW7J99zag8JeNF-21" value="" style="shape=actor;whiteSpace=wrap;html=1;" parent="1" vertex="1">
          <mxGeometry x="70" y="170" width="150" height="160" as="geometry" />
        </mxCell>
        <mxCell id="W3ftcsQW7J99zag8JeNF-22" value="&lt;h2&gt;&lt;span style=&quot;font-size: 14px;&quot;&gt;Cliente&lt;/span&gt;&lt;/h2&gt;" style="text;html=1;align=center;verticalAlign=middle;whiteSpace=wrap;rounded=0;" parent="1" vertex="1">
          <mxGeometry x="89.5" y="187" width="111" height="30" as="geometry" />
        </mxCell>
        <mxCell id="W3ftcsQW7J99zag8JeNF-23" value="[Persona]" style="text;html=1;align=center;verticalAlign=middle;whiteSpace=wrap;rounded=0;" parent="1" vertex="1">
          <mxGeometry x="70" y="250" width="150" height="30" as="geometry" />
        </mxCell>
        <mxCell id="W3ftcsQW7J99zag8JeNF-24" value="&lt;font style=&quot;font-size: 11px;&quot;&gt;Analisa e Gerencia o desempenho da aplicação.&lt;/font&gt;" style="text;html=1;align=center;verticalAlign=middle;whiteSpace=wrap;rounded=0;" parent="1" vertex="1">
          <mxGeometry x="75" y="280" width="140" height="46" as="geometry" />
        </mxCell>
        <mxCell id="W3ftcsQW7J99zag8JeNF-30" value="" style="endArrow=none;dashed=1;html=1;dashPattern=1 3;strokeWidth=2;rounded=0;startArrow=classic;startFill=1;shadow=0;" parent="1" edge="1">
          <mxGeometry width="50" height="50" relative="1" as="geometry">
            <mxPoint x="780" y="580" as="sourcePoint" />
            <mxPoint x="834" y="23" as="targetPoint" />
            <Array as="points">
              <mxPoint x="910" y="350" />
            </Array>
          </mxGeometry>
        </mxCell>
        <mxCell id="W3ftcsQW7J99zag8JeNF-31" value="" style="endArrow=classic;html=1;rounded=1;exitX=0.704;exitY=-0.063;exitDx=0;exitDy=0;exitPerimeter=0;strokeWidth=1;dashed=1;curved=0;" parent="1" edge="1">
          <mxGeometry width="50" height="50" relative="1" as="geometry">
            <mxPoint x="570" y="90" as="sourcePoint" />
            <mxPoint x="700" y="-20" as="targetPoint" />
            <Array as="points">
              <mxPoint x="570" y="-20" />
            </Array>
          </mxGeometry>
        </mxCell>
        <mxCell id="3TcSFifbMM4Q867GuQ4c-23" style="edgeStyle=orthogonalEdgeStyle;rounded=0;orthogonalLoop=1;jettySize=auto;html=1;exitX=0;exitY=0.5;exitDx=0;exitDy=0;dashed=1;" edge="1" parent="1" source="W3ftcsQW7J99zag8JeNF-33">
          <mxGeometry relative="1" as="geometry">
            <mxPoint x="950" y="-363.1428571428571" as="targetPoint" />
          </mxGeometry>
        </mxCell>
        <mxCell id="W3ftcsQW7J99zag8JeNF-33" value="" style="shape=ext;double=1;rounded=0;whiteSpace=wrap;html=1;fillColor=#f5f5f5;fontColor=#333333;strokeColor=#666666;dashed=1;" parent="1" vertex="1">
          <mxGeometry x="1030" y="-433" width="190" height="140" as="geometry" />
        </mxCell>
        <mxCell id="W3ftcsQW7J99zag8JeNF-34" value="&lt;h2&gt;&lt;span style=&quot;font-size: 14px;&quot;&gt;API Slack&lt;/span&gt;&lt;/h2&gt;" style="text;html=1;align=center;verticalAlign=middle;whiteSpace=wrap;rounded=0;" parent="1" vertex="1">
          <mxGeometry x="1030" y="-426" width="190" height="30" as="geometry" />
        </mxCell>
        <mxCell id="W3ftcsQW7J99zag8JeNF-35" value="[Container: API Slack]" style="text;html=1;align=center;verticalAlign=middle;whiteSpace=wrap;rounded=0;" parent="1" vertex="1">
          <mxGeometry x="1030" y="-404" width="190" height="30" as="geometry" />
        </mxCell>
        <mxCell id="W3ftcsQW7J99zag8JeNF-36" value="&lt;font style=&quot;font-size: 11px;&quot;&gt;API para envio de mensagens de alerta.&lt;/font&gt;" style="text;html=1;align=center;verticalAlign=middle;whiteSpace=wrap;rounded=0;" parent="1" vertex="1">
          <mxGeometry x="1050" y="-368" width="150" height="60" as="geometry" />
        </mxCell>
        <mxCell id="W3ftcsQW7J99zag8JeNF-38" value="" style="shape=ext;double=1;rounded=0;whiteSpace=wrap;html=1;fillColor=#f5f5f5;fontColor=#333333;strokeColor=#666666;dashed=1;" parent="1" vertex="1">
          <mxGeometry x="100" y="-160" width="190" height="140" as="geometry" />
        </mxCell>
        <mxCell id="W3ftcsQW7J99zag8JeNF-39" value="&lt;h2&gt;&lt;span style=&quot;font-size: 14px;&quot;&gt;API VIACEP&lt;/span&gt;&lt;/h2&gt;" style="text;html=1;align=center;verticalAlign=middle;whiteSpace=wrap;rounded=0;" parent="1" vertex="1">
          <mxGeometry x="97" y="-155" width="190" height="30" as="geometry" />
        </mxCell>
        <mxCell id="W3ftcsQW7J99zag8JeNF-40" value="[Container: API ViaCEP]" style="text;html=1;align=center;verticalAlign=middle;whiteSpace=wrap;rounded=0;" parent="1" vertex="1">
          <mxGeometry x="100" y="-125" width="190" height="30" as="geometry" />
        </mxCell>
        <mxCell id="W3ftcsQW7J99zag8JeNF-41" value="&lt;font style=&quot;font-size: 11px;&quot;&gt;API para autocompletar o endereço.&lt;/font&gt;" style="text;html=1;align=center;verticalAlign=middle;whiteSpace=wrap;rounded=0;" parent="1" vertex="1">
          <mxGeometry x="120" y="-95" width="155" height="60" as="geometry" />
        </mxCell>
        <mxCell id="W3ftcsQW7J99zag8JeNF-42" value="" style="endArrow=none;dashed=1;html=1;dashPattern=1 3;strokeWidth=2;rounded=0;startArrow=classic;startFill=0;" parent="1" edge="1">
          <mxGeometry width="50" height="50" relative="1" as="geometry">
            <mxPoint x="463" y="-10" as="sourcePoint" />
            <mxPoint x="463" y="80" as="targetPoint" />
          </mxGeometry>
        </mxCell>
        <mxCell id="AeS9dwA34NPiDYMEQ2nZ-5" value="" style="endArrow=classic;html=1;rounded=1;exitX=0.704;exitY=-0.063;exitDx=0;exitDy=0;exitPerimeter=0;strokeWidth=1;dashed=1;curved=0;" parent="1" edge="1">
          <mxGeometry width="50" height="50" relative="1" as="geometry">
            <mxPoint x="200.5" y="230" as="sourcePoint" />
            <mxPoint x="360" y="160" as="targetPoint" />
            <Array as="points">
              <mxPoint x="230" y="160" />
            </Array>
          </mxGeometry>
        </mxCell>
        <mxCell id="AeS9dwA34NPiDYMEQ2nZ-6" value="" style="endArrow=classic;html=1;rounded=1;strokeWidth=1;dashed=1;curved=0;" parent="1" edge="1">
          <mxGeometry width="50" height="50" relative="1" as="geometry">
            <mxPoint x="200.5" y="351" as="sourcePoint" />
            <mxPoint x="360" y="411" as="targetPoint" />
            <Array as="points">
              <mxPoint x="230.5" y="411" />
            </Array>
          </mxGeometry>
        </mxCell>
        <mxCell id="AeS9dwA34NPiDYMEQ2nZ-7" value="" style="shape=ext;double=1;rounded=0;whiteSpace=wrap;html=1;fillColor=#f5f5f5;fontColor=#333333;strokeColor=#666666;dashed=1;" parent="1" vertex="1">
          <mxGeometry x="329" y="-160" width="190" height="140" as="geometry" />
        </mxCell>
        <mxCell id="AeS9dwA34NPiDYMEQ2nZ-8" value="&lt;h2&gt;&lt;span style=&quot;font-size: 14px;&quot;&gt;API Suite VLibras&lt;/span&gt;&lt;/h2&gt;" style="text;html=1;align=center;verticalAlign=middle;whiteSpace=wrap;rounded=0;" parent="1" vertex="1">
          <mxGeometry x="326" y="-155" width="190" height="30" as="geometry" />
        </mxCell>
        <mxCell id="AeS9dwA34NPiDYMEQ2nZ-9" value="[Container: API VLibras]" style="text;html=1;align=center;verticalAlign=middle;whiteSpace=wrap;rounded=0;" parent="1" vertex="1">
          <mxGeometry x="329" y="-125" width="190" height="30" as="geometry" />
        </mxCell>
        <mxCell id="AeS9dwA34NPiDYMEQ2nZ-10" value="API para tradução automática para tornar a Web mais acessível" style="text;html=1;align=center;verticalAlign=middle;whiteSpace=wrap;rounded=0;" parent="1" vertex="1">
          <mxGeometry x="349" y="-95" width="155" height="60" as="geometry" />
        </mxCell>
        <mxCell id="AeS9dwA34NPiDYMEQ2nZ-11" value="" style="shape=ext;double=1;rounded=0;whiteSpace=wrap;html=1;fillColor=#f5f5f5;fontColor=#333333;strokeColor=#666666;dashed=1;" parent="1" vertex="1">
          <mxGeometry x="1030" y="-267" width="190" height="140" as="geometry" />
        </mxCell>
        <mxCell id="AeS9dwA34NPiDYMEQ2nZ-12" value="&lt;h2&gt;&lt;span style=&quot;font-size: 14px;&quot;&gt;API Leitor Código De Barras&lt;/span&gt;&lt;/h2&gt;" style="text;html=1;align=center;verticalAlign=middle;whiteSpace=wrap;rounded=0;" parent="1" vertex="1">
          <mxGeometry x="1030" y="-260" width="190" height="30" as="geometry" />
        </mxCell>
        <mxCell id="3TcSFifbMM4Q867GuQ4c-22" style="edgeStyle=orthogonalEdgeStyle;rounded=0;orthogonalLoop=1;jettySize=auto;html=1;dashed=1;" edge="1" parent="1" source="AeS9dwA34NPiDYMEQ2nZ-13">
          <mxGeometry relative="1" as="geometry">
            <mxPoint x="950" y="-205.99999999999977" as="targetPoint" />
          </mxGeometry>
        </mxCell>
        <mxCell id="AeS9dwA34NPiDYMEQ2nZ-13" value="[Container: API Leitor Codigo de Barras]" style="text;html=1;align=center;verticalAlign=middle;whiteSpace=wrap;rounded=0;" parent="1" vertex="1">
          <mxGeometry x="1030" y="-221" width="190" height="30" as="geometry" />
        </mxCell>
        <mxCell id="AeS9dwA34NPiDYMEQ2nZ-14" value="&lt;font style=&quot;font-size: 11px;&quot;&gt;API para leitura do código de barras de um produto&amp;nbsp;&lt;/font&gt;" style="text;html=1;align=center;verticalAlign=middle;whiteSpace=wrap;rounded=0;" parent="1" vertex="1">
          <mxGeometry x="1050" y="-191" width="150" height="60" as="geometry" />
        </mxCell>
        <mxCell id="3TcSFifbMM4Q867GuQ4c-25" style="edgeStyle=orthogonalEdgeStyle;rounded=0;orthogonalLoop=1;jettySize=auto;html=1;exitX=0;exitY=0.5;exitDx=0;exitDy=0;dashed=1;" edge="1" parent="1" source="AeS9dwA34NPiDYMEQ2nZ-15">
          <mxGeometry relative="1" as="geometry">
            <mxPoint x="950" y="-533" as="targetPoint" />
          </mxGeometry>
        </mxCell>
        <mxCell id="AeS9dwA34NPiDYMEQ2nZ-15" value="" style="shape=ext;double=1;rounded=0;whiteSpace=wrap;html=1;fillColor=#f5f5f5;fontColor=#333333;strokeColor=#666666;dashed=1;" parent="1" vertex="1">
          <mxGeometry x="1030" y="-603" width="190" height="140" as="geometry" />
        </mxCell>
        <mxCell id="AeS9dwA34NPiDYMEQ2nZ-16" value="&lt;h2&gt;&lt;span style=&quot;font-size: 14px;&quot;&gt;API E-mail US&lt;/span&gt;&lt;/h2&gt;" style="text;html=1;align=center;verticalAlign=middle;whiteSpace=wrap;rounded=0;" parent="1" vertex="1">
          <mxGeometry x="1030" y="-596" width="190" height="30" as="geometry" />
        </mxCell>
        <mxCell id="AeS9dwA34NPiDYMEQ2nZ-17" value="[Container: API EMAIL US" style="text;html=1;align=center;verticalAlign=middle;whiteSpace=wrap;rounded=0;" parent="1" vertex="1">
          <mxGeometry x="1030" y="-568" width="190" height="30" as="geometry" />
        </mxCell>
        <mxCell id="AeS9dwA34NPiDYMEQ2nZ-18" value="&lt;font style=&quot;font-size: 11px;&quot;&gt;API para envio de E-mail para validação de login&lt;/font&gt;" style="text;html=1;align=center;verticalAlign=middle;whiteSpace=wrap;rounded=0;" parent="1" vertex="1">
          <mxGeometry x="1050" y="-538" width="150" height="60" as="geometry" />
        </mxCell>
        <mxCell id="AeS9dwA34NPiDYMEQ2nZ-22" value="" style="endArrow=none;dashed=1;html=1;dashPattern=1 3;strokeWidth=2;rounded=0;startArrow=classic;startFill=0;" parent="1" edge="1">
          <mxGeometry width="50" height="50" relative="1" as="geometry">
            <mxPoint x="225" y="-5" as="sourcePoint" />
            <mxPoint x="375" y="95" as="targetPoint" />
          </mxGeometry>
        </mxCell>
        <object placeholders="1" c4Name="Azure" c4Type="SystemScopeBoundary" c4Application="Cloud System" label="&lt;font style=&quot;font-size: 16px&quot;&gt;&lt;b&gt;&lt;div style=&quot;text-align: left&quot;&gt;%c4Name%&lt;/div&gt;&lt;/b&gt;&lt;/font&gt;&lt;div style=&quot;text-align: left&quot;&gt;[%c4Application%]&lt;/div&gt;" id="AeS9dwA34NPiDYMEQ2nZ-26">
          <mxCell style="rounded=1;fontSize=11;whiteSpace=wrap;html=1;dashed=1;arcSize=20;fillColor=none;strokeColor=#666666;fontColor=#333333;labelBackgroundColor=none;align=left;verticalAlign=bottom;labelBorderColor=none;spacingTop=0;spacing=10;dashPattern=8 4;metaEdit=1;rotatable=0;perimeter=rectanglePerimeter;noLabel=0;labelPadding=0;allowArrows=0;connectable=0;expand=0;recursiveResize=0;editable=1;pointerEvents=0;absoluteArcSize=1;points=[[0.25,0,0],[0.5,0,0],[0.75,0,0],[1,0.25,0],[1,0.5,0],[1,0.75,0],[0.75,1,0],[0.5,1,0],[0.25,1,0],[0,0.75,0],[0,0.5,0],[0,0.25,0]];" parent="1" vertex="1">
            <mxGeometry x="353" y="68" width="457" height="700" as="geometry" />
          </mxCell>
        </object>
        <object placeholders="1" c4Name="Azure" c4Type="SystemScopeBoundary" c4Application="Cloud System" label="&lt;font style=&quot;font-size: 16px&quot;&gt;&lt;b&gt;&lt;div style=&quot;text-align: left&quot;&gt;%c4Name%&lt;/div&gt;&lt;/b&gt;&lt;/font&gt;&lt;div style=&quot;text-align: left&quot;&gt;[%c4Application%]&lt;/div&gt;" id="AeS9dwA34NPiDYMEQ2nZ-27">
          <mxCell style="rounded=1;fontSize=11;whiteSpace=wrap;html=1;dashed=1;arcSize=20;fillColor=none;strokeColor=#666666;fontColor=#333333;labelBackgroundColor=none;align=left;verticalAlign=bottom;labelBorderColor=none;spacingTop=0;spacing=10;dashPattern=8 4;metaEdit=1;rotatable=0;perimeter=rectanglePerimeter;noLabel=0;labelPadding=0;allowArrows=0;connectable=0;expand=0;recursiveResize=0;editable=1;pointerEvents=0;absoluteArcSize=1;points=[[0.25,0,0],[0.5,0,0],[0.75,0,0],[1,0.25,0],[1,0.5,0],[1,0.75,0],[0.75,1,0],[0.5,1,0],[0.25,1,0],[0,0.75,0],[0,0.5,0],[0,0.25,0]];" parent="1" vertex="1">
            <mxGeometry x="617" y="-750" width="390" height="810" as="geometry" />
          </mxCell>
        </object>
        <mxCell id="3TcSFifbMM4Q867GuQ4c-2" value="" style="sketch=0;pointerEvents=1;shadow=0;dashed=0;html=1;strokeColor=none;fillColor=#505050;labelPosition=center;verticalLabelPosition=bottom;outlineConnect=0;verticalAlign=top;align=center;shape=mxgraph.office.clouds.cloud;" vertex="1" parent="1">
          <mxGeometry x="555.9" y="754" width="47" height="25" as="geometry" />
        </mxCell>
        <object placeholders="1" c4Type="Aplicação Web" c4Container="Container: REACT | HTML | CSS| JAVASCRIPT]" c4Description="Fornece o conteúdo para visualização do cliente." label="&lt;font style=&quot;font-size: 16px&quot;&gt;&lt;b&gt;%c4Type%&lt;/b&gt;&lt;/font&gt;&lt;div&gt;[%c4Container%:&amp;nbsp;%c4Technology%]&lt;/div&gt;&lt;br&gt;&lt;div&gt;&lt;font style=&quot;font-size: 11px&quot;&gt;&lt;font color=&quot;#E6E6E6&quot;&gt;%c4Description%&lt;/font&gt;&lt;/div&gt;" id="3TcSFifbMM4Q867GuQ4c-3">
          <mxCell style="shape=mxgraph.c4.webBrowserContainer2;whiteSpace=wrap;html=1;boundedLbl=1;rounded=0;labelBackgroundColor=none;strokeColor=#118ACD;fillColor=#23A2D9;strokeColor=#118ACD;strokeColor2=#0E7DAD;fontSize=12;fontColor=#ffffff;align=center;metaEdit=1;points=[[0.5,0,0],[1,0.25,0],[1,0.5,0],[1,0.75,0],[0.5,1,0],[0,0.75,0],[0,0.5,0],[0,0.25,0]];resizable=0;" vertex="1" parent="1">
            <mxGeometry x="370" y="80" width="240" height="160" as="geometry" />
          </mxCell>
        </object>
        <mxCell id="3TcSFifbMM4Q867GuQ4c-6" value="" style="shape=ext;double=1;rounded=0;whiteSpace=wrap;html=1;" vertex="1" parent="1">
          <mxGeometry x="723" y="-180" width="190" height="140" as="geometry" />
        </mxCell>
        <mxCell id="3TcSFifbMM4Q867GuQ4c-7" value="&lt;h2&gt;&lt;span style=&quot;font-size: 14px;&quot;&gt;Microserviço&lt;/span&gt;&lt;/h2&gt;" style="text;html=1;align=center;verticalAlign=middle;whiteSpace=wrap;rounded=0;" vertex="1" parent="1">
          <mxGeometry x="723" y="-173" width="190" height="30" as="geometry" />
        </mxCell>
        <mxCell id="3TcSFifbMM4Q867GuQ4c-8" value="[Container: Java e Spring MVC]" style="text;html=1;align=center;verticalAlign=middle;whiteSpace=wrap;rounded=0;" vertex="1" parent="1">
          <mxGeometry x="723" y="-149" width="190" height="30" as="geometry" />
        </mxCell>
        <mxCell id="3TcSFifbMM4Q867GuQ4c-9" value="&lt;span style=&quot;font-size: 11px;&quot;&gt;Login, cadastro e nível de acesso de funcionário&lt;/span&gt;" style="text;html=1;align=center;verticalAlign=middle;whiteSpace=wrap;rounded=0;" vertex="1" parent="1">
          <mxGeometry x="743" y="-115" width="150" height="60" as="geometry" />
        </mxCell>
        <mxCell id="3TcSFifbMM4Q867GuQ4c-10" value="" style="shape=ext;double=1;rounded=0;whiteSpace=wrap;html=1;" vertex="1" parent="1">
          <mxGeometry x="724.5" y="-700" width="190" height="140" as="geometry" />
        </mxCell>
        <mxCell id="3TcSFifbMM4Q867GuQ4c-11" value="&lt;h2&gt;&lt;span style=&quot;font-size: 14px;&quot;&gt;Microserviço&lt;/span&gt;&lt;/h2&gt;" style="text;html=1;align=center;verticalAlign=middle;whiteSpace=wrap;rounded=0;" vertex="1" parent="1">
          <mxGeometry x="723" y="-520" width="190" height="30" as="geometry" />
        </mxCell>
        <mxCell id="3TcSFifbMM4Q867GuQ4c-12" value="[Container: Java e Spring MVC]" style="text;html=1;align=center;verticalAlign=middle;whiteSpace=wrap;rounded=0;" vertex="1" parent="1">
          <mxGeometry x="723" y="-494" width="190" height="30" as="geometry" />
        </mxCell>
        <mxCell id="3TcSFifbMM4Q867GuQ4c-13" value="&lt;span style=&quot;font-size: 11px;&quot;&gt;Relatorios do estoque&lt;/span&gt;" style="text;html=1;align=center;verticalAlign=middle;whiteSpace=wrap;rounded=0;" vertex="1" parent="1">
          <mxGeometry x="744.5" y="-464" width="150" height="60" as="geometry" />
        </mxCell>
        <mxCell id="3TcSFifbMM4Q867GuQ4c-14" value="" style="sketch=0;pointerEvents=1;shadow=0;dashed=0;html=1;strokeColor=none;fillColor=#505050;labelPosition=center;verticalLabelPosition=bottom;outlineConnect=0;verticalAlign=top;align=center;shape=mxgraph.office.clouds.cloud;" vertex="1" parent="1">
          <mxGeometry x="794.5" y="-766" width="47" height="25" as="geometry" />
        </mxCell>
        <mxCell id="3TcSFifbMM4Q867GuQ4c-15" value="&lt;h2&gt;&lt;span style=&quot;font-size: 14px;&quot;&gt;Microserviço&lt;/span&gt;&lt;/h2&gt;" style="text;html=1;align=center;verticalAlign=middle;whiteSpace=wrap;rounded=0;" vertex="1" parent="1">
          <mxGeometry x="725" y="-690" width="190" height="30" as="geometry" />
        </mxCell>
        <mxCell id="3TcSFifbMM4Q867GuQ4c-16" value="[Container: Java e Spring MVC]" style="text;html=1;align=center;verticalAlign=middle;whiteSpace=wrap;rounded=0;" vertex="1" parent="1">
          <mxGeometry x="725" y="-664" width="190" height="30" as="geometry" />
        </mxCell>
        <mxCell id="3TcSFifbMM4Q867GuQ4c-17" value="&lt;span style=&quot;font-size: 11px;&quot;&gt;Cadastro do fornecedor&lt;/span&gt;" style="text;html=1;align=center;verticalAlign=middle;whiteSpace=wrap;rounded=0;" vertex="1" parent="1">
          <mxGeometry x="745" y="-638" width="150" height="60" as="geometry" />
        </mxCell>
        <object placeholders="1" c4Name="System backend" c4Type="SystemScopeBoundary" c4Application="Software System" label="&lt;font style=&quot;font-size: 16px&quot;&gt;&lt;b&gt;&lt;div style=&quot;text-align: left&quot;&gt;%c4Name%&lt;/div&gt;&lt;/b&gt;&lt;/font&gt;&lt;div style=&quot;text-align: left&quot;&gt;[%c4Application%]&lt;/div&gt;" id="3TcSFifbMM4Q867GuQ4c-21">
          <mxCell style="rounded=1;fontSize=11;whiteSpace=wrap;html=1;dashed=1;arcSize=20;fillColor=none;strokeColor=#666666;fontColor=#333333;labelBackgroundColor=none;align=left;verticalAlign=bottom;labelBorderColor=none;spacingTop=0;spacing=10;dashPattern=8 4;metaEdit=1;rotatable=0;perimeter=rectanglePerimeter;noLabel=0;labelPadding=0;allowArrows=0;connectable=0;expand=0;recursiveResize=0;editable=1;pointerEvents=0;absoluteArcSize=1;points=[[0.25,0,0],[0.5,0,0],[0.75,0,0],[1,0.25,0],[1,0.5,0],[1,0.75,0],[0.75,1,0],[0.5,1,0],[0.25,1,0],[0,0.75,0],[0,0.5,0],[0,0.25,0]];" vertex="1" parent="1">
            <mxGeometry x="700" y="-724" width="240" height="734" as="geometry" />
          </mxCell>
        </object>
        <mxCell id="3TcSFifbMM4Q867GuQ4c-26" value="" style="endArrow=classic;html=1;rounded=1;exitX=0.704;exitY=-0.063;exitDx=0;exitDy=0;exitPerimeter=0;strokeWidth=1;dashed=1;curved=0;" edge="1" parent="1">
          <mxGeometry width="50" height="50" relative="1" as="geometry">
            <mxPoint x="580" y="385" as="sourcePoint" />
            <mxPoint x="790" y="20" as="targetPoint" />
            <Array as="points">
              <mxPoint x="790" y="380" />
            </Array>
          </mxGeometry>
        </mxCell>
        <mxCell id="3TcSFifbMM4Q867GuQ4c-31" value="" style="html=1;verticalLabelPosition=bottom;labelBackgroundColor=#ffffff;verticalAlign=top;shadow=0;dashed=0;strokeWidth=2;shape=mxgraph.ios7.misc.options;fillColor=#222222;sketch=0;" vertex="1" parent="1">
          <mxGeometry x="530" y="319" width="15" height="11" as="geometry" />
        </mxCell>
      </root>
    </mxGraphModel>
  </diagram>
</mxfile>
